<?xml version="1.0" encoding="utf-8"?>
<!-- Generator: Adobe Illustrator 16.0.0, SVG Export Plug-In . SVG Version: 6.00 Build 0)  -->
<!DOCTYPE svg PUBLIC "-//W3C//DTD SVG 1.1//EN" "http://www.w3.org/Graphics/SVG/1.1/DTD/svg11.dtd">
<svg version="1.1"
	 id="svg2" xmlns:dc="http://purl.org/dc/elements/1.1/" xmlns:cc="http://creativecommons.org/ns#" xmlns:rdf="http://www.w3.org/1999/02/22-rdf-syntax-ns#" xmlns:svg="http://www.w3.org/2000/svg" xmlns:inkscape="http://www.inkscape.org/namespaces/inkscape"
	 xmlns="http://www.w3.org/2000/svg" xmlns:xlink="http://www.w3.org/1999/xlink" x="0px" y="0px" width="1090.625px"
	 height="308.125px" viewBox="0 0 1090.625 308.125" enable-background="new 0 0 1090.625 308.125" xml:space="preserve">
<g>
	<g id="path12">
		<path inkscape:connector-curvature="0" fill="#ED2939" d="M14,308.125h462.188V0H14V308.125z"/>
	</g>
	<g id="path14">
		<path inkscape:connector-curvature="0" fill="#FFFFFF" d="M0,308.125h308.125V0H0V308.125z"/>
	</g>
	<g id="path16">
		<path inkscape:connector-curvature="0" fill="#002395" d="M0,308.125h154.063V0H0V308.125z"/>
	</g>
	<g id="path18">
		<path inkscape:connector-curvature="0" fill="#009543" d="M476.188,308.047h615.938V0.078H476.188V308.047z"/>
	</g>
	<g id="path20">
		<path inkscape:connector-curvature="0" fill="#ED2939" d="M474.688,205.313h615.938V0H474.688V205.313z"/>
	</g>
	<g id="path22">
		<path inkscape:connector-curvature="0" fill="#0035AD" d="M474.688,102.656h615.938V0H474.688V102.656z"/>
	</g>
	<g id="g24">
		<g>
			<defs>
				<rect id="SVGID_1_" width="1090.625" height="308.125"/>
			</defs>
			<clipPath id="SVGID_2_">
				<use xlink:href="#SVGID_1_"  overflow="visible"/>
			</clipPath>
			<g id="g26" clip-path="url(#SVGID_2_)">
				<g id="g32" transform="translate(544,204.0571)">
					<g id="path34">
						<path inkscape:connector-curvature="0" fill="#FAE600" d="M136-151.003c55.742,0,100.932,45.188,100.932,100.931
							C236.932,5.67,191.742,50.861,136,50.861c-55.744,0-100.933-45.19-100.933-100.933C35.067-105.816,80.256-151.003,136-151.003
							"/>
					</g>
				</g>
				<g id="g36" transform="translate(544,204.0571)">
					<g id="path38">
						<path d="M136,53.361c-57.033,0-103.433-46.399-103.433-103.433c0-57.032,46.399-103.431,103.433-103.431
							c57.032,0,103.432,46.399,103.432,103.431C239.432,6.961,193.032,53.361,136,53.361z M136-148.503
							c-54.276,0-98.433,44.156-98.433,98.431c0,54.276,44.156,98.433,98.433,98.433c54.275,0,98.432-44.157,98.432-98.433
							C234.432-104.347,190.275-148.503,136-148.503z"/>
					</g>
				</g>
				<g id="g40" transform="translate(544,203.7954)">
					<g id="path42">
						<path inkscape:connector-curvature="0" d="M136-150.415V22.048 M118.89-60.076h34.221 M118.89-34.754h34.221"/>
						<polygon points="139,22.048 133,22.048 133,-31.754 118.89,-31.754 118.89,-37.754 133,-37.754 133,-57.076 118.89,-57.076 
							118.89,-63.076 133,-63.076 133,-150.415 139,-150.415 139,-63.076 153.11,-63.076 153.11,-57.076 139,-57.076 139,-37.754 
							153.11,-37.754 153.11,-31.754 139,-31.754 						"/>
					</g>
				</g>
				<g id="g44" transform="translate(511.4902,49.1699)">
					<g id="path46">
						<path inkscape:connector-curvature="0" d="M127.872,197.492c41.193,16.822,79.803,1.033,79.803,1.033
							s-14.573-15.772-22.047-21.933c-7.289-6.007-28.736-5.769-36.056,0C143.465,181.41,125.949,199.158,127.872,197.492"/>
					</g>
				</g>
				<g id="g48" transform="translate(544,99.2217)">
					<g id="path50">
						<path inkscape:connector-curvature="0" d="M136,84.876c6.236,0,11.293,7.353,11.293,16.426
							c0,9.069-5.057,16.424-11.293,16.424s-11.291-7.354-11.291-16.424C124.709,92.228,129.764,84.876,136,84.876"/>
					</g>
				</g>
				<g id="g52" transform="translate(544,128.3281)">
					<g id="path54">
						<path inkscape:connector-curvature="0" d="M136,19.387c7.559,0,13.688,3.88,13.688,8.666c0,4.784-6.129,8.662-13.688,8.662
							c-7.56,0-13.688-3.878-13.688-8.662C122.313,23.267,128.44,19.387,136,19.387"/>
					</g>
				</g>
				<g id="g56" transform="translate(544,164.3755)">
					<g id="path58">
						<path inkscape:connector-curvature="0" d="M136-61.72c7.559,0,13.688,6.127,13.688,13.688c0,7.559-6.129,13.687-13.688,13.687
							c-7.56,0-13.688-6.127-13.688-13.687C122.313-55.592,128.44-61.72,136-61.72"/>
					</g>
				</g>
				<g id="g60" transform="translate(557.1406,194.2139)">
					<g id="path62">
						<path inkscape:connector-curvature="0" d="M139.285-128.856c-0.005-0.01,1.187,1.964-1.31,6.459
							c-11.927,21.476-23.895,21.941-26.164,23.791c-2.505,2.037-3.562,1.899-3.562,1.899c0.179-1.841,0.345-9.362,0.477-10.087
							c1.809-10.035,16.97-9.897,28.834-20.172c1.854-1.604,1.72-1.899,1.72-1.899L139.285-128.856z"/>
					</g>
				</g>
				<g id="g64" transform="translate(525.1113,157.2573)">
					<g id="path66">
						<path inkscape:connector-curvature="0" d="M131.277-45.704c0,0,2.68,7.685,3.079,15.399
							c0.643,12.315,12.442,12.661,20.532,12.661v-6.844c-6.063,0-11.328-0.901-15.739-9.924
							C136.973-38.863,131.277-45.704,131.277-45.704"/>
					</g>
				</g>
				<g id="g68" transform="translate(524.8379,77.8691)">
					<g id="path70">
						<path inkscape:connector-curvature="0" d="M131.209,132.92c0,0,4.308-5.316,9.35-17.779c2.631-6.5,8.863-10.281,14.604-10.281
							v-9.58c-13.021,0-19.267,4.826-19.924,11.881C133.885,121.654,131.209,132.92,131.209,132.92"/>
					</g>
				</g>
				<g id="g72" transform="translate(562.8887,157.2573)">
					<g id="path74">
						<path inkscape:connector-curvature="0" d="M140.723-45.704c0,0-2.681,7.685-3.08,15.399
							c-0.641,12.315-12.441,12.661-20.531,12.661v-6.844c6.063,0,11.328-0.901,15.741-9.924
							C135.028-38.863,140.723-45.704,140.723-45.704"/>
					</g>
				</g>
				<g id="g76" transform="translate(563.1621,77.8691)">
					<g id="path78">
						<path inkscape:connector-curvature="0" d="M140.791,132.92c0,0-4.31-5.316-9.35-17.779c-2.631-6.5-8.862-10.281-14.604-10.281
							v-9.58c13.022,0,19.266,4.826,19.924,11.881C138.114,121.654,140.791,132.92,140.791,132.92"/>
					</g>
				</g>
			</g>
		</g>
	</g>
</g>
</svg>
