<svg xmlns="http://www.w3.org/2000/svg" width="60" height="60" viewBox="0 0 60 60">
    <g fill="none" fill-rule="evenodd">
        <g fill="#000" fill-rule="nonzero">
            <g>
                <path d="M21 30c0 4.97 4.03 9 9 9s9-4.03 9-9-4.03-9-9-9c-4.968.006-8.994 4.032-9 9zm16 0c0 3.866-3.134 7-7 7s-7-3.134-7-7 3.134-7 7-7c3.864.005 6.995 3.136 7 7z" transform="translate(-328 -279) translate(328 279)"/>
                <path d="M27 28c0 2.11 1.691 2.638 2.701 2.953C30.831 31.305 31 31.442 31 32c0 .552-.448 1-1 1s-1-.448-1-1h-2c0 1.657 1.343 3 3 3s3-1.343 3-3c0-2.114-1.692-2.641-2.703-2.957C29.17 28.693 29 28.556 29 28c0-.552.448-1 1-1s1 .448 1 1h2c0-1.657-1.343-3-3-3s-3 1.343-3 3z" transform="translate(-328 -279) translate(328 279)"/>
                <path d="M51 42c-4.97 0-9 4.03-9 9s4.03 9 9 9 9-4.03 9-9c-.006-4.968-4.032-8.994-9-9zm0 16c-3.866 0-7-3.134-7-7s3.134-7 7-7 7 3.134 7 7c-.005 3.864-3.136 6.995-7 7z" opacity=".3" transform="translate(-328 -279) translate(328 279)"/>
                <path d="M51 48c.552 0 1 .448 1 1h2c0-1.657-1.343-3-3-3s-3 1.343-3 3c0 2.11 1.691 2.638 2.701 2.953C51.831 52.305 52 52.442 52 53c0 .552-.448 1-1 1s-1-.448-1-1h-2c0 1.657 1.343 3 3 3s3-1.343 3-3c0-2.114-1.692-2.641-2.703-2.957C50.17 49.693 50 49.556 50 49c0-.552.448-1 1-1zM9 60c4.97 0 9-4.03 9-9s-4.03-9-9-9-9 4.03-9 9c.006 4.968 4.032 8.994 9 9zm0-16c3.866 0 7 3.134 7 7s-3.134 7-7 7-7-3.134-7-7c.005-3.864 3.136-6.995 7-7z" opacity=".3" transform="translate(-328 -279) translate(328 279)"/>
                <path d="M9 54c-.552 0-1-.448-1-1H6c0 1.657 1.343 3 3 3s3-1.343 3-3c0-2.114-1.692-2.641-2.703-2.957C8.17 49.693 8 49.556 8 49c0-.552.448-1 1-1s1 .448 1 1h2c0-1.657-1.343-3-3-3s-3 1.343-3 3c0 2.11 1.691 2.638 2.701 2.953C9.831 52.305 10 52.442 10 53c0 .552-.448 1-1 1z" opacity=".3" transform="translate(-328 -279) translate(328 279)"/>
                <path d="M19.809 16.356l3.487 2.615C18.8 21.785 16.05 26.697 16 32c0 6.99 5.103 11 14 11s14-4.01 14-11c-.051-5.535-3.048-10.624-7.864-13.352l3.055-2.292c.834-.625 1.175-1.713.845-2.702-.33-.988-1.255-1.655-2.297-1.654h-2.042c.178-.722.014-1.486-.445-2.072C34.793 9.342 34.091 9 33.347 9h-7.694c-.744 0-1.446.342-1.905.928-.459.585-.623 1.35-.444 2.072H21.26c-1.042 0-1.968.666-2.297 1.654-.33.989.01 2.077.845 2.702zM42 32c0 7.83-7.519 9-12 9s-12-1.17-12-9c0-6.925 5.607-13 12-13s12 6.075 12 13zm-4.26-18c.18 0 .341.115.398.287.058.172-.001.36-.146.47L34.066 17.7c-.483-.166-.975-.303-1.474-.41L34.566 14h3.173zm-12.457-2.778c.07-.14.215-.225.37-.222h7.694c.155 0 .297.085.37.222.073.136.065.302-.02.43l-.529.793c-.009.013-.013.03-.021.043l-.004-.003-2.724 4.54C30.28 17.018 30.141 17 30 17c-.463 0-.926.027-1.385.08l-2.758-4.595-.004.003c-.008-.014-.012-.03-.02-.043l-.53-.792c-.089-.128-.097-.295-.02-.431zm-4.422 3.066c.051-.177.216-.296.4-.288h3.173l2.113 3.523c-.427.126-.848.274-1.26.443l-4.28-3.21c-.15-.104-.21-.297-.146-.468z" transform="translate(-328 -279) translate(328 279)"/>
                <path d="M42.686 11.286l1.271.42c.048.125.099.249.154.371l-.533 1.121c-.156.328-.122.714.089 1.009.584.823 1.303 1.542 2.126 2.126.295.21.68.244 1.008.088l1.122-.532c.122.055.246.106.371.154l.42 1.271c.136.41.519.686.95.686h2.672c.431 0 .814-.276.95-.686l.432-1.306.326-.135 1.154.548c.327.156.713.123 1.008-.088.823-.584 1.542-1.303 2.127-2.126.21-.295.245-.681.089-1.009l-.549-1.154.135-.326 1.306-.432c.41-.136.686-.518.686-.95V7.664c0-.432-.276-.814-.686-.95l-1.306-.432-.135-.325.549-1.155c.156-.328.122-.714-.089-1.009-.584-.823-1.303-1.542-2.126-2.126-.295-.21-.68-.244-1.008-.088l-1.155.548-.326-.135-.433-1.306C53.15.276 52.767 0 52.335 0h-2.67c-.432 0-.815.276-.95.686l-.421 1.271c-.125.048-.249.1-.371.154L46.8 1.58c-.327-.155-.713-.122-1.008.088-.823.584-1.542 1.303-2.126 2.126-.21.295-.245.681-.089 1.009l.533 1.121c-.055.122-.106.246-.154.37l-1.271.421c-.41.136-.686.518-.686.95v2.672c0 .432.276.814.686.95zM44 8.386l1.055-.35c.308-.101.548-.347.642-.658.104-.338.24-.666.407-.979.148-.28.156-.613.02-.899l-.476-1.002c.258-.307.542-.591.849-.85l1.003.477c.286.135.62.127.9-.021.312-.167.64-.304.98-.407.31-.095.555-.334.657-.642L50.387 2h1.226l.35 1.055c.091.275.298.498.566.61l1.16.48c.26.109.556.101.811-.02l1.003-.477c.307.259.59.543.849.85L55.876 5.5c-.121.256-.129.55-.02.813l.48 1.158c.111.268.334.474.61.566L58 8.386v1.228l-1.055.35c-.275.09-.498.297-.61.566l-.48 1.158c-.108.262-.1.557.021.812l.476 1.002c-.259.307-.543.591-.85.85l-1.002-.476c-.256-.12-.55-.128-.812-.02l-1.159.48c-.268.111-.475.333-.566.61L51.613 16h-1.226l-.35-1.055c-.102-.308-.348-.548-.66-.642-.338-.104-.665-.24-.978-.407-.28-.149-.613-.157-.899-.02l-1.003.476c-.307-.259-.59-.543-.849-.85l.476-1.002c.136-.286.128-.619-.02-.898-.167-.313-.303-.641-.407-.98-.094-.311-.334-.557-.642-.659L44 9.614V8.386z" opacity=".3" transform="translate(-328 -279) translate(328 279)"/>
                <path d="M51 13c2.21 0 4-1.79 4-4s-1.79-4-4-4-4 1.79-4 4c.002 2.208 1.792 3.998 4 4zm0-6c1.105 0 2 .895 2 2s-.895 2-2 2-2-.895-2-2c.001-1.104.896-1.999 2-2zM.686 11.286l1.271.42c.048.125.099.249.154.371l-.533 1.121c-.156.328-.122.714.089 1.009.584.823 1.303 1.542 2.126 2.126.295.21.68.244 1.008.088l1.122-.532c.122.055.246.106.371.154l.42 1.271c.136.41.519.686.95.686h2.672c.431 0 .814-.276.95-.686l.432-1.306.326-.135 1.154.548c.327.156.713.123 1.008-.088.823-.584 1.542-1.303 2.127-2.126.21-.295.245-.681.089-1.009l-.549-1.154.135-.326 1.306-.432c.41-.136.686-.518.686-.95V7.664c0-.432-.276-.814-.686-.95l-1.306-.432-.135-.325.549-1.155c.156-.328.122-.714-.089-1.009-.584-.823-1.303-1.542-2.126-2.126-.295-.21-.68-.244-1.008-.088l-1.155.548-.326-.135-.433-1.306C11.15.276 10.767 0 10.335 0h-2.67c-.432 0-.815.276-.95.686l-.421 1.271c-.125.048-.249.1-.371.154L4.8 1.58c-.327-.155-.713-.122-1.008.088-.823.584-1.542 1.303-2.126 2.126-.21.295-.245.681-.089 1.009l.533 1.121c-.055.122-.106.246-.154.37l-1.271.421c-.41.136-.686.518-.686.95v2.672c0 .432.276.814.686.95zM2 8.386l1.055-.35c.308-.101.548-.347.642-.658.104-.338.24-.666.407-.979.148-.28.156-.613.02-.899l-.476-1.002c.258-.307.542-.591.85-.85l1.002.477c.286.135.62.127.9-.021.312-.167.64-.304.98-.407.31-.095.555-.334.657-.642L8.387 2h1.226l.35 1.055c.091.275.298.498.566.61l1.16.48c.26.109.556.101.811-.02l1.003-.477c.307.259.59.543.849.85L13.876 5.5c-.121.256-.129.55-.02.813l.48 1.158c.111.268.334.474.61.566L16 8.386v1.228l-1.055.35c-.275.09-.498.297-.61.566l-.48 1.158c-.108.262-.1.557.021.812l.476 1.002c-.259.307-.543.591-.85.85l-1.002-.476c-.256-.12-.55-.128-.812-.02l-1.159.48c-.268.111-.475.333-.566.61L9.613 16H8.387l-.35-1.055c-.102-.308-.348-.548-.66-.642-.338-.104-.665-.24-.978-.407-.28-.149-.613-.157-.899-.02l-1.003.476c-.307-.259-.59-.543-.849-.85l.476-1.002c.136-.286.128-.619-.02-.898-.167-.313-.303-.641-.407-.98-.094-.311-.334-.557-.642-.659L2 9.614V8.386z" opacity=".3" transform="translate(-328 -279) translate(328 279)"/>
                <path d="M9 13c2.21 0 4-1.79 4-4s-1.79-4-4-4-4 1.79-4 4c.002 2.208 1.792 3.998 4 4zm0-6c1.105 0 2 .895 2 2s-.895 2-2 2-2-.895-2-2c.001-1.104.896-1.999 2-2zM22.293 49.293l-3 3c-.188.187-.293.442-.293.707 0 .265.105.52.293.707l3 3 1.414-1.414L22.414 54h.535c2.789-.003 5.048-2.263 5.051-5.051V45h-2v3.949c-.002 1.684-1.366 3.05-3.05 3.051h-.536l1.293-1.293-1.414-1.414zM31 45v3.949c.003 2.788 2.262 5.048 5.05 5.051h.536l-1.293 1.293 1.414 1.414 3-3c.188-.187.293-.442.293-.707 0-.265-.105-.52-.293-.707l-3-3-1.414 1.414L36.586 52h-.535C34.366 51.998 33 50.633 33 48.949V45h-2zM19 1H21V3H19zM23 1H25V3H23zM27 1H29V3H27zM31 1H33V3H31zM35 1H37V3H35zM39 1H41V3H39zM50 20H52V22H50zM50 24H52V26H50zM46 24H48V26H46zM8 20H10V22H8zM8 24H10V26H8zM12 24H14V26H12z" opacity=".3" transform="translate(-328 -279) translate(328 279)"/>
            </g>
        </g>
    </g>
</svg>
