<svg xmlns="http://www.w3.org/2000/svg" width="60" height="57" viewBox="0 0 60 57">
    <g fill="none" fill-rule="evenodd">
        <g fill="#000" fill-rule="nonzero">
            <g>
                <path d="M25 15c-9.374 0-17 7.626-17 17 0 9.374 7.626 17 17 17 9.374 0 17-7.626 17-17 0-9.374-7.626-17-17-17zm1 31.949V44h-2v2.949C16.527 46.453 10.547 40.473 10.051 33H13v-2h-2.949c.496-7.473 6.476-13.453 13.949-13.949V20h2v-2.949c7.473.496 13.453 6.476 13.949 13.949H37v2h2.949C39.453 40.473 33.473 46.453 26 46.949z" transform="translate(-328 -140) translate(328 140)"/>
                <path d="M51 0H53V3H51zM51 13H53V16H51zM57 7H60V9H57zM44 7H47V9H44z" opacity=".3" transform="translate(-328 -140) translate(328 140)"/>
                <path d="M55.096 2.404H58.096999999999994V4.404H55.096z" opacity=".3" transform="translate(-328 -140) translate(328 140) rotate(-45 56.596 3.404)"/>
                <path d="M45.903 11.597H48.903999999999996V13.597H45.903z" opacity=".3" transform="translate(-328 -140) translate(328 140) rotate(-45 47.403 12.597)"/>
                <path d="M55.596 11.096H57.596V14.097H55.596z" opacity=".3" transform="translate(-328 -140) translate(328 140) rotate(-45 56.596 12.597)"/>
                <path d="M46.403 1.903H48.403V4.904H46.403z" opacity=".3" transform="translate(-328 -140) translate(328 140) rotate(-45 47.403 3.404)"/>
                <path d="M25 55C12.317 55 2 44.683 2 32S12.317 9 25 9h9v2c0 .36.193.692.507.87.153.087.323.13.493.13.178 0 .356-.048.515-.143l5-3c.3-.18.485-.505.485-.857s-.185-.677-.485-.857l-5-3c-.309-.185-.694-.19-1.008-.013-.314.177-.507.51-.507.87v2h-9C11.215 7 0 18.215 0 32s11.215 25 25 25 25-11.215 25-25h-2c0 12.683-10.317 23-23 23zM36 6.767L38.057 8 36 9.233V6.767z" opacity=".3" transform="translate(-328 -140) translate(328 140)"/>
                <path d="M48 28H50V30H48z" opacity=".3" transform="translate(-328 -140) translate(328 140)"/>
                <path d="M28 32c0-1.302-.839-2.402-2-2.816V23h-2v6.184c-1.161.414-2 1.514-2 2.816 0 1.654 1.346 3 3 3 .519 0 1-.144 1.427-.377l3.948 3.159 1.25-1.562-3.852-3.082c.145-.352.227-.735.227-1.138zm-4 0c0-.552.448-1 1-1s1 .448 1 1-.448 1-1 1-1-.448-1-1z" transform="translate(-328 -140) translate(328 140)"/>
            </g>
        </g>
    </g>
</svg>
