<svg xmlns="http://www.w3.org/2000/svg" xmlns:xlink="http://www.w3.org/1999/xlink" width="24" height="21" viewBox="0 0 24 21">
    <defs>
        <path id="h723qasaqa" d="M.688 11.142c.382 0 .687.288.687.649v6.001c0 1.602 1.38 2.91 3.082 2.91h15.086c1.696 0 3.082-1.304 3.082-2.91v-5.905c0-.36.305-.65.687-.65.382 0 .688.294.688.65v5.905C24 20.11 22.003 22 19.543 22H4.457C2.002 22 0 20.115 0 17.792v-6.001c0-.36.306-.65.688-.65zM12 1c.173 0 .351.063.484.192l4.37 4.126c.27.255.27.664 0 .919s-.703.255-.973 0l-3.193-3.02v13.171c0 .36-.306.65-.688.65-.382 0-.688-.29-.688-.65V3.217l-3.198 3.02c-.27.255-.703.255-.973 0s-.27-.664 0-.919l4.375-4.126C11.65 1.067 11.826 1 12 1z"/>
    </defs>
    <g fill="none" fill-rule="evenodd">
        <g>
            <g>
                <g transform="translate(-992 -989) translate(839 919) translate(153 69)">
                    <use fill="#9D9D9D" xlink:href="#h723qasaqa"/>
                </g>
            </g>
        </g>
    </g>
</svg>
